HIERARCHY
ROOT Base
{
  OFFSET -2.77734 -2.29426 -1.2751
  CHANNELS 6 Xposition Yposition Zposition Zrotation Xrotation Yrotation
  JOINT Hips
  {
    OFFSET 0 103.797 1.28397
    CHANNELS 6 Xposition Yposition Zposition Zrotation Xrotation Yrotation
    JOINT Spine
    {
      OFFSET 0 10.1816 0.1315
      CHANNELS 6 Xposition Yposition Zposition Zrotation Xrotation Yrotation
      JOINT Spine1
      {
        OFFSET 0 10.0835 -1.0008
        CHANNELS 6 Xposition Yposition Zposition Zrotation Xrotation Yrotation
        JOINT Spine2
        {
          OFFSET 0 9.1 -1.3734
          CHANNELS 6 Xposition Yposition Zposition Zrotation Xrotation Yrotation
          JOINT Neck1
          {
            OFFSET 0 16.6717 -2.5162
            CHANNELS 6 Xposition Yposition Zposition Zrotation Xrotation Yrotation
            JOINT Neck2
            {
              OFFSET 0 9.6179 1.685
              CHANNELS 6 Xposition Yposition Zposition Zrotation Xrotation Yrotation
              JOINT Skull
              {
                OFFSET 0 7.59293 2.585
                CHANNELS 6 Xposition Yposition Zposition Zrotation Xrotation Yrotation
                JOINT LeftEye
                {
                  OFFSET 3.0676 -1.18343 6.6986
                  CHANNELS 6 Xposition Yposition Zposition Zrotation Xrotation Yrotation
                  End Site
                  {
                    OFFSET 0 0 0
                  }
                }
                JOINT RightEye
                {
                  OFFSET -3.0676 -1.18343 6.6985
                  CHANNELS 6 Xposition Yposition Zposition Zrotation Xrotation Yrotation
                  End Site
                  {
                    OFFSET 0 0 0
                  }
                }
              }
            }
          }
          JOINT LeftShoulder
          {
            OFFSET 4.5704 10.946 -2.628
            CHANNELS 6 Xposition Yposition Zposition Zrotation Xrotation Yrotation
            JOINT LeftArm
            {
              OFFSET 10.5924 -0.5246 -2.2321
              CHANNELS 6 Xposition Yposition Zposition Zrotation Xrotation Yrotation
              JOINT LeftForeArm
              {
                OFFSET 27.8415 -0.0001 0
                CHANNELS 6 Xposition Yposition Zposition Zrotation Xrotation Yrotation
                JOINT LeftHand
                {
                  OFFSET 28.3288 0 0
                  CHANNELS 6 Xposition Yposition Zposition Zrotation Xrotation Yrotation
                  JOINT LeftHandThumb1
                  {
                    OFFSET 2.4661 -1.575 2.6824
                    CHANNELS 6 Xposition Yposition Zposition Zrotation Xrotation Yrotation
                    JOINT LeftHandThumb2
                    {
                      OFFSET 3.2298 -1.8647 1.8647
                      CHANNELS 6 Xposition Yposition Zposition Zrotation Xrotation Yrotation
                      End Site
                      {
                        OFFSET 2.6526 -1.5315 1.5315
                      }
                    }
                  }
                  JOINT LeftHandIndex1
                  {
                    OFFSET 9.1093 -0.5171 2.2601
                    CHANNELS 6 Xposition Yposition Zposition Zrotation Xrotation Yrotation
                    JOINT LeftHandIndex2
                    {
                      OFFSET 3.6764 0 0
                      CHANNELS 6 Xposition Yposition Zposition Zrotation Xrotation Yrotation
                      End Site
                      {
                        OFFSET 2.8831 0 0
                      }
                    }
                  }
                  JOINT LeftHandMiddle1
                  {
                    OFFSET 9.5334 0 0
                    CHANNELS 6 Xposition Yposition Zposition Zrotation Xrotation Yrotation
                    JOINT LeftHandMiddle2
                    {
                      OFFSET 3.6982 0 0
                      CHANNELS 6 Xposition Yposition Zposition Zrotation Xrotation Yrotation
                      End Site
                      {
                        OFFSET 2.9509 0 0
                      }
                    }
                  }
                  JOINT LeftHandRing1
                  {
                    OFFSET 9.1045 -0.0439 -1.8651
                    CHANNELS 6 Xposition Yposition Zposition Zrotation Xrotation Yrotation
                    JOINT LeftHandRing2
                    {
                      OFFSET 3.154 0 0
                      CHANNELS 6 Xposition Yposition Zposition Zrotation Xrotation Yrotation
                      End Site
                      {
                        OFFSET 2.9377 0 0
                      }
                    }
                  }
                  JOINT LeftHandPinky1
                  {
                    OFFSET 8.0778 -0.4887 -3.8061
                    CHANNELS 6 Xposition Yposition Zposition Zrotation Xrotation Yrotation
                    JOINT LeftHandPinky2
                    {
                      OFFSET 3.6 0 0
                      CHANNELS 6 Xposition Yposition Zposition Zrotation Xrotation Yrotation
                      End Site
                      {
                        OFFSET 2.1142 0 0
                      }
                    }
                  }
                }
              }
            }
          }
          JOINT RightShoulder
          {
            OFFSET -4.57 10.9462 -2.628
            CHANNELS 6 Xposition Yposition Zposition Zrotation Xrotation Yrotation
            JOINT RightArm
            {
              OFFSET -10.5928 -0.5248 -2.2321
              CHANNELS 6 Xposition Yposition Zposition Zrotation Xrotation Yrotation
              JOINT RightForeArm
              {
                OFFSET -27.8415 0 0
                CHANNELS 6 Xposition Yposition Zposition Zrotation Xrotation Yrotation
                JOINT RightHand
                {
                  OFFSET -28.3288 0 0.0001
                  CHANNELS 6 Xposition Yposition Zposition Zrotation Xrotation Yrotation
                  JOINT RightHandPinky1
                  {
                    OFFSET -8.0767 -0.4885 -3.806
                    CHANNELS 6 Xposition Yposition Zposition Zrotation Xrotation Yrotation
                    JOINT RightHandPinky2
                    {
                      OFFSET -3.6 0 0.0001
                      CHANNELS 6 Xposition Yposition Zposition Zrotation Xrotation Yrotation
                      End Site
                      {
                        OFFSET -2.1142 0 0
                      }
                    }
                  }
                  JOINT RightHandRing1
                  {
                    OFFSET -9.1036 -0.0439 -1.8651
                    CHANNELS 6 Xposition Yposition Zposition Zrotation Xrotation Yrotation
                    JOINT RightHandRing2
                    {
                      OFFSET -3.154 0 0
                      CHANNELS 6 Xposition Yposition Zposition Zrotation Xrotation Yrotation
                      End Site
                      {
                        OFFSET -2.9377 0 0
                      }
                    }
                  }
                  JOINT RightHandMiddle1
                  {
                    OFFSET -9.5325 0 0
                    CHANNELS 6 Xposition Yposition Zposition Zrotation Xrotation Yrotation
                    JOINT RightHandMiddle2
                    {
                      OFFSET -3.6982 0 0
                      CHANNELS 6 Xposition Yposition Zposition Zrotation Xrotation Yrotation
                      End Site
                      {
                        OFFSET -2.9509 0 0
                      }
                    }
                  }
                  JOINT RightHandIndex1
                  {
                    OFFSET -9.1083 -0.5168 2.2601
                    CHANNELS 6 Xposition Yposition Zposition Zrotation Xrotation Yrotation
                    JOINT RightHandIndex2
                    {
                      OFFSET -3.6764 0 0
                      CHANNELS 6 Xposition Yposition Zposition Zrotation Xrotation Yrotation
                      End Site
                      {
                        OFFSET -2.8831 0 0
                      }
                    }
                  }
                  JOINT RightHandThumb1
                  {
                    OFFSET -2.4648 -1.5727 2.6826
                    CHANNELS 6 Xposition Yposition Zposition Zrotation Xrotation Yrotation
                    JOINT RightHandThumb2
                    {
                      OFFSET -3.2298 -1.8647 1.8647
                      CHANNELS 6 Xposition Yposition Zposition Zrotation Xrotation Yrotation
                      End Site
                      {
                        OFFSET -2.6526 -1.5314 1.5314
                      }
                    }
                  }
                }
              }
            }
          }
        }
      }
    }
    JOINT LeftUpLeg
    {
      OFFSET 8.2078 -6.7517 -1.5996
      CHANNELS 6 Xposition Yposition Zposition Zrotation Xrotation Yrotation
      JOINT LeftLeg
      {
        OFFSET 0 -44.3705 0.2846
        CHANNELS 6 Xposition Yposition Zposition Zrotation Xrotation Yrotation
        JOINT LeftFoot
        {
          OFFSET 0 -44.4279 -2.9822
          CHANNELS 6 Xposition Yposition Zposition Zrotation Xrotation Yrotation
          End Site
          {
            OFFSET 0 -8.7287 10.7106
          }
        }
      }
    }
    JOINT RightUpLeg
    {
      OFFSET -8.2078 -6.7517 -1.5996
      CHANNELS 6 Xposition Yposition Zposition Zrotation Xrotation Yrotation
      JOINT RightLeg
      {
        OFFSET 0 -44.3705 0.2862
        CHANNELS 6 Xposition Yposition Zposition Zrotation Xrotation Yrotation
        JOINT RightFoot
        {
          OFFSET 0 -44.4277 -2.9838
          CHANNELS 6 Xposition Yposition Zposition Zrotation Xrotation Yrotation
          End Site
          {
            OFFSET 0 -8.7287 10.7106
          }
        }
      }
    }
  }
}
MOTION
Frames:	4
Frame Time:	0.0416667
-2.77732 -2.29428 -1.2751 -0.136613 2.5496 -5.79068 0 103.797 1.28397 -4.96962e-017 7.95139e-016 1.59028e-015 -4.44089e-016 10.1816 0.1315 0.443184 18.7239 7.87353 8.88178e-016 10.0835 -1.0008 0.385759 -0.900556 1.02438 8.88178e-016 9.1 -1.3734 0.338341 -0.905306 1.03656 -3.55271e-015 16.6717 -2.5162 -2.40917 1.93742 0.208726 2.22045e-016 9.6179 1.685 -2.40917 1.9374 0.208728 8.88178e-016 7.59293 2.585 -2.40916 1.93743 0.208711 3.0676 -1.18343 6.6986 -4.41391e-032 -3.18055e-015 -7.95139e-016 -3.0676 -1.18343 6.6985 -4.41391e-032 -3.18055e-015 -7.95139e-016 4.5704 10.946 -2.628 6.18932 -0.82035 9.55471 10.5924 -0.5246 -2.2321 -46.7512 18.6418 15.6341 27.8415 -0.0001 -1.42109e-014 -0.000208106 4.95203e-006 -0.167253 28.3288 -2.84217e-014 1.42109e-014 -28.2121 -0.369338 19.2092 2.4661 -1.575 2.6824 6.13845 -1.1463 3.8272 3.2298 -1.8647 1.8647 0.739164 4.04322 7.89737 9.1093 -0.5171 2.2601 -0.704703 0.0361409 -5.87183 3.6764 0 0 -1.8708e-005 1.27751e-006 3.98232e-006 9.5334 -1.42109e-014 0 0.0159815 -3.88185e-007 -0.00192473 3.6982 -1.42109e-014 1.42109e-014 -0.0159758 4.18259e-007 0.00191938 9.1045 -0.0439 -1.8651 0.42329 0.0130172 3.52316 3.154 0 0 -5.68944e-005 6.86703e-006 4.80637e-006 8.0778 -0.4887 -3.8061 1.31227 0.125367 10.8064 3.6 0 0 -0.507968 0.0179822 -4.05448 -4.57 10.9462 -2.628 -2.99407 2.69434 3.41231 -10.5928 -0.5248 -2.2321 24.7879 51.162 49.6622 -27.8415 0 0 -4.58753e-005 1.73504e-006 96.5291 -28.3288 0 0.0001 -3.39252 19.6063 1.03027 -8.0767 -0.4885 -3.806 5.3261 1.68307 -6.88103 -3.6 1.42109e-014 0.0001 17.418 1.4423 -1.56789 -9.1036 -0.0439 -1.8651 5.78387 1.64819 -1.88659 -3.154 0 1.42109e-014 17.4181 1.44205 -1.56935 -9.5325 0 -1.42109e-014 5.8919 1.64576 -0.711783 -3.6982 1.42109e-014 0 17.4181 1.44203 -1.56935 -9.1083 -0.5168 2.2601 6.18898 1.65041 2.51894 -3.6764 0 0 17.4181 1.44205 -1.56936 -2.4648 -1.5727 2.6826 -6.58323 -1.43646 -3.76368 -3.2298 -1.8647 1.8647 -0.219587 4.67208 -8.61486 8.2078 -6.7517 -1.5996 -0.505471 -47.7548 -0.526164 8.88178e-016 -44.3705 0.2846 176.168 70.8681 -166.283 -1.77636e-015 -44.4279 -2.9822 -24.8952 6.87114 15.39 -8.2078 -6.7517 -1.5996 -5.92024 -29.9593 -13.9472 -1.77636e-015 -44.3705 0.2862 8.43498 48.4146 3.22663 -4.44089e-016 -44.4277 -2.9838 20.4992 6.94436 -2.25165 
-10.3265 -1.47053 -3.77529 -2.63329 4.93835 -7.28702 1.77636e-015 103.797 1.28397 8.94531e-016 -1.59028e-015 7.95139e-016 1.77636e-015 10.1816 0.1315 4.65358 12.3729 5.93776 -4.44089e-016 10.0835 -1.0008 -1.13774 0.233647 0.856196 1.22125e-015 9.1 -1.3734 -1.16226 0.244381 0.865765 0 16.6717 -2.5162 -2.67822 2.02899 -0.283063 0 9.6179 1.685 -2.67822 2.02904 -0.283061 0 7.59293 2.585 -2.67821 2.02902 -0.283081 3.0676 -1.18343 6.6986 -2.18663e-015 -6.36111e-015 -7.95139e-016 -3.0676 -1.18343 6.6985 -2.18663e-015 -6.36111e-015 -7.95139e-016 4.5704 10.946 -2.628 7.09894 -0.825943 9.84839 10.5924 -0.5246 -2.2321 -41.8505 28.9923 18.6351 27.8415 -0.0001 -2.84217e-014 -0.000200711 6.23754e-006 -2.95934 28.3288 0 -1.42109e-014 -31.1413 -2.5273 16.1914 2.4661 -1.575 2.6824 6.13847 -1.14631 3.82719 3.2298 -1.8647 1.8647 0.739164 4.04322 7.89737 9.1093 -0.5171 2.2601 -0.704705 0.0361353 -5.87184 3.6764 0 -1.42109e-014 6.98353e-005 5.32886e-007 -8.51584e-006 9.5334 0 0 0.0159819 2.79452e-006 -0.00192695 3.6982 0 0 -0.0128745 -6.0927e-006 0.00154938 9.1045 -0.0439 -1.8651 0.423293 0.0130293 3.52316 3.154 0 0 3.35322e-006 8.77333e-007 -7.33661e-006 8.0778 -0.4887 -3.8061 1.31228 0.125359 10.8064 3.6 0 0 -0.504853 0.017769 -4.05485 -4.57 10.9462 -2.628 -5.9689 2.52556 5.01647 -10.5928 -0.5248 -2.2321 23.721 46.3241 44.2242 -27.8415 -1.42109e-014 0 2.03569e-006 -1.96902e-006 104.332 -28.3288 0 0.0001 -2.10886 16.6388 2.58194 -8.0767 -0.4885 -3.806 5.3261 1.68307 -6.88103 -3.6 0 0.0001 17.418 1.4423 -1.56789 -9.1036 -0.0439 -1.8651 5.78387 1.64819 -1.88659 -3.154 1.42109e-014 0 17.4181 1.44204 -1.56935 -9.5325 1.42109e-014 1.42109e-014 5.8919 1.64576 -0.711783 -3.6982 0 2.84217e-014 17.4181 1.44203 -1.56934 -9.1083 -0.5168 2.2601 6.18898 1.65041 2.51894 -3.6764 0 1.42109e-014 17.4181 1.44202 -1.56935 -2.4648 -1.5727 2.6826 -6.58323 -1.43646 -3.76368 -3.2298 -1.8647 1.8647 -0.219587 4.67208 -8.61486 8.2078 -6.7517 -1.5996 8.24606 -43.357 0.444023 -1.77636e-015 -44.3705 0.2846 166.005 84.5048 -155.459 -3.55271e-015 -44.4279 -2.9822 -18.4609 4.07398 16.9105 -8.2078 -6.7517 -1.5996 -6.75652 -33.3826 -13.9626 0 -44.3705 0.2862 4.02619 50.3785 6.31104 0 -44.4277 -2.9838 31.5114 13.5686 2.41038 
-9.24694 -1.83909 7.58426 -0.159967 -0.670577 -8.53039 3.55271e-015 103.797 1.28397 -3.72721e-017 0 1.59028e-015 1.77636e-015 10.1816 0.1315 0.888927 19.0421 6.55241 -8.88178e-016 10.0835 -1.0008 -1.84689 -2.0161 0.986938 -8.88178e-016 9.1 -1.3734 -1.90608 -1.99007 0.937709 1.77636e-015 16.6717 -2.5162 -2.99721 2.94041 -0.449992 3.55271e-015 9.6179 1.685 -2.99721 2.94039 -0.449993 -3.55271e-015 7.59293 2.585 -2.99718 2.94046 -0.449976 3.0676 -1.18343 6.6986 -9.93923e-016 -3.18055e-015 -1.59028e-015 -3.0676 -1.18343 6.6985 -9.93923e-016 -3.18055e-015 -1.59028e-015 4.5704 10.946 -2.628 7.9367 -0.716778 9.26915 10.5924 -0.5246 -2.2321 -40.2851 40.3028 15.4572 27.8415 -0.0001 -1.42109e-014 -0.000202932 5.7147e-006 -1.5688 28.3288 -1.42109e-014 0 -33.1615 0.471254 14.486 2.4661 -1.575 2.6824 6.13846 -1.1463 3.8272 3.2298 -1.8647 1.8647 0.739164 4.04322 7.89737 9.1093 -0.5171 2.2601 -0.704706 0.0361358 -5.87184 3.6764 1.42109e-014 1.42109e-014 0.00101035 -2.32908e-006 -0.000124904 9.5334 1.42109e-014 -1.42109e-014 0.0159819 5.27969e-006 -0.00192127 3.6982 0 0 -0.00712373 -9.30883e-006 0.000849997 9.1045 -0.0439 -1.8651 0.423303 0.0130143 3.52314 3.154 -1.42109e-014 0 0.00100403 -2.09277e-006 -0.00011931 8.0778 -0.4887 -3.8061 1.31228 0.125369 10.8064 3.6 1.42109e-014 -1.42109e-014 -0.499139 0.0173508 -4.05555 -4.57 10.9462 -2.628 -8.13679 2.21287 5.36722 -10.5928 -0.5248 -2.2321 20.8619 41.3947 38.7628 -27.8415 0 1.42109e-014 -4.69616e-005 -8.48312e-006 101.513 -28.3288 0 0.0001 0.591758 15.3299 7.67625 -8.0767 -0.4885 -3.806 5.3261 1.68307 -6.88103 -3.6 1.42109e-014 0.0001 17.418 1.44232 -1.56791 -9.1036 -0.0439 -1.8651 5.78387 1.64819 -1.88659 -3.154 0 0 17.4181 1.44204 -1.56935 -9.5325 0 -2.13163e-014 5.8919 1.64576 -0.711783 -3.6982 -1.42109e-014 0 17.4181 1.44205 -1.56936 -9.1083 -0.5168 2.2601 6.18898 1.65041 2.51894 -3.6764 0 0 17.4181 1.44204 -1.56935 -2.4648 -1.5727 2.6826 -6.58323 -1.43646 -3.76368 -3.2298 -1.8647 1.8647 -0.219587 4.67208 -8.61486 8.2078 -6.7517 -1.5996 15.2025 -26.5968 2.55858 7.10543e-015 -44.3705 0.2846 3.9174 71.4376 6.74116 0 -44.4279 -2.9822 -10.0371 -0.587903 15.5219 -8.2078 -6.7517 -1.5996 -13.5661 -30.2472 -13.1616 0 -44.3705 0.2862 -5.12951 50.7275 13.0978 1.06581e-014 -44.4277 -2.9838 19.1486 6.38654 0.0613699 
-12.32 -2.42037 17.0166 -0.00798834 -5.11025 -8.00347 -3.55271e-015 103.797 1.28397 2.20695e-032 -7.95139e-016 1.59028e-015 0 10.1816 0.1315 -1.97934 22.6172 6.94878 0 10.0835 -1.0008 -0.445187 -3.12529 0.954592 1.77636e-015 9.1 -1.3734 -0.517209 -3.11571 0.9276 -1.77636e-015 16.6717 -2.5162 -3.36293 3.29452 -0.585429 -3.55271e-015 9.6179 1.685 -3.36294 3.29457 -0.585425 0 7.59293 2.585 -3.36296 3.29449 -0.585472 3.0676 -1.18343 6.6986 -2.38542e-015 -3.18055e-015 -0 -3.0676 -1.18343 6.6985 -2.38542e-015 -3.18055e-015 -0 4.5704 10.946 -2.628 8.67755 -0.498782 7.70752 10.5924 -0.5246 -2.2321 -42.6948 40.4956 7.99249 27.8415 -0.0001 -1.42109e-014 -0.000211265 3.07547e-006 -0.125195 28.3288 0 0 -33.2694 6.45883 13.7844 2.4661 -1.575 2.6824 6.13847 -1.14631 3.8272 3.2298 -1.8647 1.8647 0.739164 4.04322 7.89737 9.1093 -0.5171 2.2601 -0.704698 0.0361299 -5.87184 3.6764 -7.10543e-015 0 -0.0343736 -7.38066e-007 0.00413088 9.5334 0 2.84217e-014 0.0159819 -4.87988e-006 -0.00192768 3.6982 0 0 -0.0505502 -1.55403e-006 0.0060812 9.1045 -0.0439 -1.8651 0.423298 0.0130063 3.52315 3.154 0 0 -0.0343414 3.57639e-006 0.00412707 8.0778 -0.4887 -3.8061 1.31229 0.125356 10.8064 3.6 7.10543e-015 0 -0.542439 0.0204122 -4.05033 -4.57 10.9462 -2.628 -10.0346 1.65423 4.44309 -10.5928 -0.5248 -2.2321 15.555 39.2578 38.6954 -27.8415 1.42109e-014 -1.42109e-014 5.11637e-005 -7.67006e-007 89.5899 -28.3288 1.42109e-014 0.0001 4.71406 15.055 13.0647 -8.0767 -0.4885 -3.806 5.3261 1.68307 -6.88103 -3.6 -1.42109e-014 0.0001 17.4181 1.4423 -1.5679 -9.1036 -0.0439 -1.8651 5.78387 1.64819 -1.88659 -3.154 0 0 17.4181 1.44203 -1.56935 -9.5325 0 3.55271e-015 5.8919 1.64576 -0.711783 -3.6982 0 -7.10543e-015 17.4181 1.44203 -1.56935 -9.1083 -0.5168 2.2601 6.18898 1.65041 2.51894 -3.6764 0 0 17.4181 1.44204 -1.56935 -2.4648 -1.5727 2.6826 -6.58323 -1.43646 -3.76368 -3.2298 -1.8647 1.8647 -0.219587 4.67208 -8.61486 8.2078 -6.7517 -1.5996 23.6542 -10.4418 6.26561 -3.55271e-015 -44.3705 0.2846 0.909478 44.5529 9.6523 -7.10543e-015 -44.4279 -2.9822 -3.12417 -3.93335 6.97676 -8.2078 -6.7517 -1.5996 -16.6157 -25.2705 -10.9135 7.10543e-015 -44.3705 0.2862 -12.3311 43.2215 17.2829 0 -44.4277 -2.9838 7.70788 5.97927 0.810473 
